<svg height="491pt" viewBox="-56 0 491 491.998" width="491pt" xmlns="http://www.w3.org/2000/svg"><path d="m368.070312 247.949219c6.832032 6.835937 6.832032 17.917969 0 24.75-6.835937 6.835937-17.917968 6.835937-24.75 0l-31.742187-31.738281 24.75-24.75zm0 0" fill="#6fe3ff"/><path d="m169.488281 356.03125c0-21.484375-17.011719-39.105469-38.480469-39.871094v-.03125h171.671876c25.007812.003906 45.277343 20.273438 45.28125 45.28125v99.898438c-.007813 12.902344 9.925781 23.625 22.789062 24.613281h-155.980469c-25.011719.003906-45.285156-20.273437-45.28125-45.28125zm0 0" fill="#f8ec7d"/><path d="m221.558594 33c44.316406.117188 82.386718 31.503906 90.949218 74.988281 8.558594 43.480469-14.773437 86.957031-55.738281 103.863281-40.964843 16.90625-88.167969 2.535157-112.765625-34.328124-24.59375-36.863282-19.742187-85.96875 11.59375-117.304688 17.472656-17.515625 41.222656-27.316406 65.960938-27.21875zm0 0" fill="#6fe3ff"/><path d="m6.5 6c13.4375 0 13.4375 9.058594 26.878906 9.058594s13.441406-9.058594 26.878906-9.058594c13.441407 0 13.441407 9.058594 26.882813 9.058594 13.4375 0 13.4375-9.058594 26.878906-9.058594 13.441407 0 13.441407 9.058594 26.878907 9.058594 13.441406 0 13.441406-9.058594 26.890624-9.058594 13.449219 0 13.441407 9.058594 26.878907 9.058594 13.441406 0 13.449219-9.058594 26.890625-9.058594v27c-51.328125 0-92.941406 41.609375-92.941406 92.941406 0 51.328125 41.613281 92.9375 92.941406 92.9375v97.25h-90.550782v.03125c-.46875-.019531-.9375-.03125-1.417968-.03125-22.035156.007813-39.894532 17.867188-39.902344 39.902344v20.378906c0 21.328125-16.132812 39.199219-37.347656 41.378906-1.410156.140626-2.824219.210938-4.242188.210938-22.972656.007812-41.601562-18.617188-41.597656-41.589844zm0 0" fill="#f8ec7d"/><path d="m52.339844 417.789062c21.214844-2.179687 37.347656-20.050781 37.347656-41.378906v-20.378906c.007812-22.035156 17.867188-39.894531 39.902344-39.902344.480468 0 .949218.011719 1.417968.03125 21.46875.765625 38.480469 18.386719 38.480469 39.871094v61.777344h-117.148437zm0 0" fill="#e2d574"/><g fill="#63316d"><path d="m122.828125 54.851562c0-3.316406-2.683594-6-6-6h-72.71875c-3.3125 0-6 2.683594-6 6 0 3.3125 2.6875 6 6 6h72.71875c3.316406 0 6-2.6875 6-6zm0 0"/><path d="m307.335938 245.199219 31.742187 31.746093c9.179687 9.175782 24.058594 9.175782 33.238281-.003906 9.175782-9.179687 9.175782-24.058594-.003906-33.234375l-31.742188-31.742187c-2.339843-2.34375-6.140624-2.34375-8.484374 0l-8.132813 8.132812-28.582031-28.582031c25.0625-28.292969 31.808594-68.390625 17.390625-103.328125s-47.484375-58.605469-85.203125-60.988281v-21.199219c0-3.3125-2.6875-6-6-6-8.550782 0-13.121094 3.078125-16.792969 5.554688-3.019531 2.035156-5.199219 3.503906-10.097656 3.503906-4.902344 0-7.070313-1.46875-10.089844-3.5-3.667969-2.480469-8.234375-5.558594-16.789063-5.558594-8.554687 0-13.128906 3.078125-16.800781 5.554688-3.019531 2.035156-5.199219 3.5-10.085937 3.5-4.886719 0-7.066406-1.46875-10.085938-3.5-3.675781-2.476563-8.246094-5.554688-16.796875-5.554688-8.554687 0-13.125 3.078125-16.792969 5.554688-3.019531 2.035156-5.203124 3.5-10.085937 3.5-4.886719 0-7.070313-1.46875-10.085937-3.5-3.671876-2.476563-8.242188-5.554688-16.796876-5.554688-8.550781 0-13.121093 3.078125-16.792968 5.554688-3.019532 2.035156-5.199219 3.5-10.085938 3.5-4.886718 0-7.066406-1.46875-10.085937-3.5-3.671875-2.476563-8.242188-5.554688-16.792969-5.554688-3.316406 0-6 2.6875-6 6v370.410156c-.003906 26.289063 21.3125 47.597656 47.597656 47.589844 1.410156 0 2.816406-.074219 4.203125-.191406h111.1875v16.828125c-.003906 28.324219 22.957031 51.285156 51.28125 51.28125h155.800781c.636719.050781 1.296876.078125 2.066407.078125 3.328125-.035156 6.007812-2.75 6-6.078125 0-3.3125-2.6875-6-6-6h-1.574219c-9.65625-.84375-17.074219-8.914063-17.105469-18.609375v-99.902344c-.03125-28.304688-22.972656-51.246094-51.28125-51.277344h-75.117187v-85.449218c21.988281-1.328126 42.890625-10.015626 59.339844-24.664063l28.570312 28.570313-8.132812 8.132812c-2.339844 2.34375-2.339844 6.136719 0 8.480469zm-24.550782-57.785157c-16.210937 16.300782-38.25 25.464844-61.234375 25.464844h-.214843c-48.015626.003906-86.945313-38.917968-86.949219-86.933594-.003907-48.015624 38.917969-86.941406 86.933593-86.945312h.222657c35.125.09375 66.738281 21.308594 80.136719 53.777344 13.398437 32.464844 5.941406 69.804687-18.894532 94.640625zm-202.804687 224.394532c10.027343-9.027344 15.742187-21.902344 15.707031-35.398438v-20.378906c.007812-18.722656 15.179688-33.894531 33.902344-33.902344.390625 0 .773437.007813 1.210937.027344 18.273438.574219 32.765625 15.59375 32.6875 33.875v55.777344zm261.980469-50.398438v99.898438c.003906 6.734375 2.230468 13.277344 6.335937 18.613281h-133.527344c-21.695312.003906-39.285156-17.585937-39.28125-39.28125v-84.609375c.042969-12.886719-5.351562-25.195312-14.851562-33.902344h142.042969c21.683593.027344 39.253906 17.597656 39.28125 39.28125zm-210.953126-51.28125c-.140624 0-.28125.011719-.421874.023438-.332032-.007813-.660157-.023438-1-.023438-25.347657.007813-45.894532 20.554688-45.902344 45.902344v20.378906c.0625 18.269532-13.765625 33.597656-31.949219 35.410156-1.1875.117188-2.414063.179688-3.640625.179688-19.660156.007812-35.601562-15.929688-35.597656-35.589844v-363.308594c1.433594.671876 2.800781 1.476563 4.085937 2.40625 3.671875 2.472657 8.238281 5.554688 16.792969 5.554688s13.121094-3.082031 16.792969-5.554688c3.019531-2.035156 5.199219-3.5 10.085937-3.5 4.886719 0 7.070313 1.46875 10.089844 3.5 3.667969 2.472657 8.238281 5.554688 16.792969 5.554688 8.550781 0 13.121093-3.082031 16.792969-5.554688 3.019531-2.035156 5.199218-3.5 10.085937-3.5s7.066406 1.46875 10.085937 3.5c3.671876 2.472657 8.242188 5.554688 16.792969 5.554688 8.554688 0 13.121094-3.078125 16.792969-5.550781 3.023438-2.039063 5.199219-3.507813 10.097656-3.507813 4.902344 0 7.070313 1.46875 10.085938 3.5 3.671875 2.472656 8.242187 5.554688 16.796875 5.554688 8.550781 0 13.128906-3.082032 16.800781-5.554688 1.285156-.929687 2.652344-1.734375 4.089844-2.402344v14.070313c-39.449219 2.28125-73.746094 27.839844-87.210938 64.988281h-46.039062c-3.3125 0-6 2.6875-6 6s2.6875 6 6 6h42.550781c-2.308594 10.269532-2.976563 20.839844-1.976563 31.320313h-40.574218c-3.3125 0-6 2.6875-6 6s2.6875 6 6 6h42.5c2.457031 11.105469 6.820312 21.703125 12.902344 31.320312h-55.402344c-3.3125 0-6 2.683594-6 6 0 3.3125 2.6875 6 6 6h64.328125c1.511719 1.734375 3.066406 3.449219 4.71875 5.097657 17.128906 17.171874 39.988281 27.425781 64.199219 28.800781v85.429687zm205.320313-85.429687 27.5 27.5c2.160156 2.15625 3.371094 5.082031 3.371094 8.132812s-1.210938 5.972657-3.371094 8.128907c-4.496094 4.480468-11.769531 4.480468-16.265625 0l-27.5-27.5zm0 0"/><path d="m60.570312 92.160156h-16.460937c-3.3125 0-6 2.6875-6 6s2.6875 6 6 6h16.460937c3.3125 0 6-2.6875 6-6s-2.6875-6-6-6zm0 0"/><path d="m60.570312 135.480469h-16.460937c-3.3125 0-6 2.6875-6 6s2.6875 6 6 6h16.460937c3.3125 0 6-2.6875 6-6s-2.6875-6-6-6zm0 0"/><path d="m60.570312 178.800781h-16.460937c-3.3125 0-6 2.683594-6 6 0 3.3125 2.6875 6 6 6h16.460937c3.3125 0 6-2.6875 6-6 0-3.316406-2.6875-6-6-6zm0 0"/><path d="m82.308594 234.109375h101.640625c3.3125 0 6-2.6875 6-6s-2.6875-6-6-6h-101.640625c-3.3125 0-6 2.6875-6 6s2.6875 6 6 6zm0 0"/><path d="m60.570312 222.109375h-16.460937c-3.3125 0-6 2.6875-6 6s2.6875 6 6 6h16.460937c3.3125 0 6-2.6875 6-6s-2.6875-6-6-6zm0 0"/><path d="m183.949219 260.429688h-101.640625c-3.3125 0-6 2.6875-6 6s2.6875 6 6 6h101.640625c3.3125 0 6-2.6875 6-6s-2.6875-6-6-6zm0 0"/><path d="m60.570312 260.429688h-16.460937c-3.3125 0-6 2.6875-6 6s2.6875 6 6 6h16.460937c3.3125 0 6-2.6875 6-6s-2.6875-6-6-6zm0 0"/><path d="m245.140625 439.371094h61.398437c3.3125 0 6-2.6875 6-6 0-3.316406-2.6875-6-6-6h-61.398437c-3.316406 0-6 2.683594-6 6 0 3.3125 2.683594 6 6 6zm0 0"/><path d="m224.640625 427.371094h-17.070313c-3.316406 0-6 2.683594-6 6 0 3.3125 2.683594 6 6 6h17.070313c3.3125 0 6-2.6875 6-6 0-3.316406-2.6875-6-6-6zm0 0"/><path d="m245.140625 404.371094h61.398437c3.3125 0 6-2.6875 6-6 0-3.316406-2.6875-6-6-6h-61.398437c-3.316406 0-6 2.683594-6 6 0 3.3125 2.683594 6 6 6zm0 0"/><path d="m224.640625 392.371094h-17.070313c-3.316406 0-6 2.683594-6 6 0 3.3125 2.683594 6 6 6h17.070313c3.3125 0 6-2.6875 6-6 0-3.316406-2.6875-6-6-6zm0 0"/><path d="m245.140625 369.371094h61.398437c3.3125 0 6-2.6875 6-6 0-3.316406-2.6875-6-6-6h-61.398437c-3.316406 0-6 2.683594-6 6 0 3.3125 2.683594 6 6 6zm0 0"/><path d="m201.570312 363.371094c0 3.3125 2.683594 6 6 6h17.070313c3.3125 0 6-2.6875 6-6 0-3.316406-2.6875-6-6-6h-17.070313c-3.316406 0-6 2.683594-6 6zm0 0"/><path d="m215.308594 65.941406v7.4375c-14.707032 3.078125-24.710938 16.773438-23.167969 31.722656 1.546875 14.945313 14.140625 26.308594 29.167969 26.308594 9.515625.058594 17.207031 7.78125 17.21875 17.300782.011718 9.515624-7.652344 17.261718-17.171875 17.347656h-.09375c-9.542969-.039063-17.261719-7.777344-17.273438-17.320313 0-3.3125-2.6875-6-6-6s-6 2.6875-6 6c.019531 13.875 9.746094 25.84375 23.320313 28.703125v8.5c0 3.3125 2.6875 6 6 6s6-2.6875 6-6v-8.5c14.714844-3.074218 24.722656-16.773437 23.175781-31.722656-1.546875-14.953125-14.144531-26.3125-29.175781-26.308594-9.566406-.003906-17.320313-7.761718-17.320313-17.328125 0-9.566406 7.757813-17.320312 17.324219-17.324219 9.566406 0 17.324219 7.753907 17.328125 17.320313 0 3.316406 2.683594 6 6 6 3.3125 0 6-2.683594 6-6-.023437-13.875-9.75-25.84375-23.332031-28.699219v-7.4375c0-3.316406-2.6875-6-6-6s-6 2.683594-6 6zm0 0"/></g></svg>