<svg height="488pt" viewBox="0 0 488 488" width="488pt" xmlns="http://www.w3.org/2000/svg"><path d="m348.410156 461.722656h-301.09375c-23.921875 0-43.316406-19.394531-43.316406-43.316406v-371.089844c0-23.921875 19.394531-43.316406 43.316406-43.316406h301.09375c23.921875 0 43.316406 19.394531 43.316406 43.316406v371.089844c0 23.921875-19.390624 43.316406-43.316406 43.316406zm0 0" fill="#a4c9ff"/><path d="m47.769531 398.253906v-330.785156c0-8.449219 6.851563-15.304688 15.300781-15.304688h269.582032c8.453125 0 15.304687 6.855469 15.304687 15.304688v330.785156c0 8.449219-6.851562 15.300782-15.304687 15.300782h-269.582032c-8.449218.003906-15.300781-6.847657-15.300781-15.300782zm0 0" fill="#e0ebfc"/><path d="m124.851562 302.820312-5.175781-2.917968c-2.027343-1.140625-3.230469-2.996094-3.230469-4.964844v-9.160156h-28.992187v10.070312c0 1.972656-1.207031 3.828125-3.230469 4.96875l-3.5625 2.003906c-8.460937 4.773438-13.488281 12.503907-13.488281 20.75v80.203126c0 5.402343 5.515625 9.785156 12.316406 9.785156h46.535157c6.800781 0 12.316406-4.382813 12.316406-9.785156v-80.203126c0-8.246093-5.027344-15.976562-13.488282-20.75zm0 0" fill="#f9a7a7"/><path d="m212.851562 302.820312-5.175781-2.917968c-2.027343-1.140625-3.230469-2.996094-3.230469-4.964844v-9.160156h-28.992187v10.070312c0 1.972656-1.207031 3.828125-3.230469 4.96875l-3.5625 2.003906c-8.460937 4.773438-13.488281 12.503907-13.488281 20.75v80.203126c0 5.402343 5.515625 9.785156 12.316406 9.785156h46.535157c6.800781 0 12.316406-4.382813 12.316406-9.785156v-80.203126c0-8.246093-5.027344-15.976562-13.488282-20.75zm0 0" fill="#f9a7a7"/><path d="m118.324219 285.777344h-33.121094c-1.222656 0-2.214844-.992188-2.214844-2.21875v-19.570313c0-1.222656.992188-2.214843 2.214844-2.214843h33.121094c1.226562 0 2.21875.992187 2.21875 2.214843v19.570313c0 1.226562-.992188 2.21875-2.21875 2.21875zm0 0" fill="#4671c6"/><path d="m138.339844 344.222656h-71.167969v28.6875h71.167969zm0 0" fill="#4671c6"/><path d="m129.390625 358.566406c0 14.6875-11.90625 26.59375-26.59375 26.59375s-26.597656-11.90625-26.597656-26.59375 11.910156-26.597656 26.597656-26.597656 26.59375 11.910156 26.59375 26.597656zm0 0" fill="#f9cfcf"/><path d="m297.265625 84.066406h-82.117187c-1.101563 0-2 .894532-2 2v102c0 1.105469.898437 2 2 2h82.117187c1.105469 0 2-.894531 2-2v-102c0-1.105468-.894531-2-2-2zm0 0" fill="#4671c6"/><path d="m341.035156 484h-286.34375c-5.867187 0-10.621094-4.753906-10.621094-10.617188v-11.660156h307.582032v11.660156c0 5.863282-4.753906 10.617188-10.617188 10.617188zm0 0" fill="#e0ebfc"/><path d="m341.039062 488h-286.347656c-8.0625 0-14.621094-6.554688-14.621094-14.617188v-11.660156c0-2.207031 1.792969-4 4-4h307.582032c2.210937 0 4 1.792969 4 4v11.660156c0 8.0625-6.554688 14.617188-14.613282 14.617188zm-292.96875-22.277344v7.660156c0 3.648438 2.96875 6.617188 6.621094 6.617188h286.347656c3.648438 0 6.617188-2.96875 6.617188-6.617188v-7.660156zm0 0" fill="#3762cc"/><path d="m348.410156 465.722656h-301.09375c-26.089844 0-47.316406-21.226562-47.316406-47.316406v-371.089844c0-26.089844 21.226562-47.316406 47.316406-47.316406h301.09375c26.089844 0 47.316406 21.226562 47.316406 47.316406v371.089844c0 26.089844-21.226562 47.316406-47.316406 47.316406zm-301.09375-457.722656c-21.679687 0-39.316406 17.636719-39.316406 39.316406v371.089844c0 21.679688 17.636719 39.316406 39.316406 39.316406h301.09375c21.679688 0 39.316406-17.636718 39.316406-39.316406v-371.089844c0-21.679687-17.636718-39.316406-39.316406-39.316406zm0 0" fill="#3762cc"/><path d="m180.574219 190.066406h-82.113281c-1.101563 0-2-.894531-2-2v-102c0-1.105468.898437-2 2-2h82.117187c1.105469 0 2 .894532 2 2v102c-.003906 1.105469-.894531 2-2.003906 2zm0 0" fill="#4671c6"/><path d="m164.558594 136.675781c0 13.828125-11.210938 25.039063-25.039063 25.039063-13.832031 0-25.042969-11.210938-25.042969-25.039063s11.210938-25.039062 25.042969-25.039062c13.828125 0 25.039063 11.210937 25.039063 25.039062zm0 0" fill="#6bdddd"/><path d="m171.691406 73.238281h-64.34375c-1.445312 0-2.617187-1.167969-2.617187-2.613281v-3.410156c0-1.445313 1.171875-2.613282 2.617187-2.613282h64.34375c1.441406 0 2.613282 1.167969 2.613282 2.613282v3.410156c0 1.445312-1.171876 2.613281-2.613282 2.613281zm0 0" fill="#4671c6"/><path d="m423.375 461.648438h-16.621094c-8.296875 0-15.027344-6.726563-15.027344-15.023438v-427.523438c0-8.300781 6.730469-15.027343 15.027344-15.027343h16.621094c8.300781 0 15.027344 6.726562 15.027344 15.027343v427.519532c0 8.300781-6.726563 15.027344-15.027344 15.027344zm0 0" fill="#e0ebfc"/><path d="m423.375 465.648438h-16.621094c-10.492187 0-19.027344-8.535157-19.027344-19.027344v-427.519532c0-10.492187 8.535157-19.0273432 19.027344-19.0273432h16.621094c10.492188 0 19.027344 8.5351562 19.027344 19.0273432v427.523438c0 10.492188-8.535156 19.023438-19.027344 19.023438zm-16.621094-457.574219c-6.082031 0-11.027344 4.945312-11.027344 11.027343v427.523438c0 6.078125 4.945313 11.027344 11.027344 11.027344h16.621094c6.082031 0 11.027344-4.949219 11.027344-11.027344v-427.523438c0-6.082031-4.945313-11.027343-11.027344-11.027343zm0 0" fill="#3762cc"/><path d="m458.273438 60.09375h-19.871094v37.789062h13.03125v155.976563h-13.03125v40.136719h13.03125c17.988281 0 32.566406-17.96875 32.566406-40.136719v-154.53125c0-19.273437-11.027344-35.359375-25.726562-39.234375zm0 0" fill="#f9a7a7"/><path d="m451.433594 297.996094h-13.03125c-2.207032 0-4-1.789063-4-4v-40.136719c0-2.207031 1.792968-4 4-4h9.027344v-147.976563h-9.027344c-2.207032 0-4-1.792968-4-4v-37.789062c0-2.207031 1.792968-4 4-4h19.871094c.34375 0 .6875.042969 1.019531.132812 16.632812 4.386719 28.707031 22.511719 28.707031 43.101563v154.53125c0 24.335937-16.402344 44.136719-36.566406 44.136719zm-9.03125-8h9.03125c15.75 0 28.566406-16.210938 28.566406-36.136719v-154.53125c0-16.808594-9.335938-31.53125-22.265625-35.234375h-15.332031v29.789062h9.027344c2.207031 0 4 1.792969 4 4v155.976563c0 2.207031-1.792969 4-4 4h-9.027344zm0 0" fill="#3762cc"/><path d="m47.769531 200.894531h300.191407v40.140625h-300.191407zm0 0" fill="#a4c9ff"/><path d="m99.078125 84.066406h80.878906c.199219 0 .375.070313.5625.113282l-11.621093-10.765626c-.121094-.109374-.28125-.171874-.445313-.171874h-57.871094c-.164062 0-.320312.0625-.441406.171874l-11.621094 10.769532c.183594-.046875.363281-.117188.558594-.117188zm0 0" fill="#4671c6"/><path d="m297.265625 190.066406h-82.117187c-1.101563 0-2-.894531-2-2v-102c0-1.105468.898437-2 2-2h82.117187c1.105469 0 2 .894532 2 2v102c0 1.105469-.894531 2-2 2zm0 0" fill="#4671c6"/><path d="m281.246094 136.675781c0 13.828125-11.207032 25.039063-25.039063 25.039063-13.828125 0-25.039062-11.210938-25.039062-25.039063s11.210937-25.039062 25.039062-25.039062c13.832031 0 25.039063 11.210937 25.039063 25.039062zm0 0" fill="#6bdddd"/><path d="m288.378906 73.238281h-64.34375c-1.441406 0-2.613281-1.167969-2.613281-2.613281v-3.410156c0-1.445313 1.171875-2.613282 2.613281-2.613282h64.34375c1.445313 0 2.613282 1.167969 2.613282 2.613282v3.410156c0 1.445312-1.167969 2.613281-2.613282 2.613281zm0 0" fill="#4671c6"/><path d="m215.769531 84.066406h80.875c.203125 0 .378907.070313.5625.113282l-11.617187-10.765626c-.125-.109374-.28125-.171874-.449219-.171874h-57.871094c-.164062 0-.320312.0625-.441406.171874l-11.621094 10.769532c.1875-.046875.363281-.117188.5625-.117188zm0 0" fill="#4671c6"/><path d="m296.761719 190.066406h-81.554688l9.699219 8.960938c1.300781 1.203125 3.007812 1.871094 4.78125 1.871094h53.035156c1.769532 0 3.480469-.667969 4.78125-1.871094l9.699219-8.960938zm0 0" fill="#4671c6"/><path d="m98.519531 190.066406 9.699219 8.960938c1.300781 1.203125 3.007812 1.871094 4.78125 1.871094h53.035156c1.769532 0 3.480469-.667969 4.777344-1.871094l9.703125-8.960938zm0 0" fill="#4671c6"/><path d="m206.773438 285.777344h-33.121094c-1.222656 0-2.214844-.992188-2.214844-2.21875v-19.570313c0-1.222656.992188-2.214843 2.214844-2.214843h33.121094c1.222656 0 2.214843.992187 2.214843 2.214843v19.570313c0 1.226562-.992187 2.21875-2.214843 2.21875zm0 0" fill="#4671c6"/><path d="m226.339844 344.222656h-71.167969v28.6875h71.167969zm0 0" fill="#4671c6"/><path d="m217.390625 358.566406c0 14.6875-11.90625 26.59375-26.59375 26.59375s-26.597656-11.90625-26.597656-26.59375 11.910156-26.597656 26.597656-26.597656 26.59375 11.910156 26.59375 26.597656zm0 0" fill="#f9cfcf"/><path d="m322.867188 405.382812h-69.097657c-2.898437 0-5.25-2.351562-5.25-5.25v-142.710937c0-2.902344 2.351563-5.25 5.25-5.25h69.097657c2.898437 0 5.25 2.347656 5.25 5.25v142.710937c0 2.898438-2.351563 5.25-5.25 5.25zm0 0" fill="#eaa97d"/><g fill="#f9cfcf"><path d="m255.472656 274.234375v-12.308594c0-1.546875 1.253906-2.800781 2.800782-2.800781h12.308593c1.546875 0 2.800781 1.253906 2.800781 2.800781v12.308594c0 1.546875-1.253906 2.800781-2.800781 2.800781h-12.308593c-1.546876 0-2.800782-1.253906-2.800782-2.800781zm0 0"/><path d="m279.363281 274.234375v-12.308594c0-1.546875 1.253907-2.800781 2.800781-2.800781h12.308594c1.546875 0 2.800782 1.253906 2.800782 2.800781v12.308594c0 1.546875-1.253907 2.800781-2.800782 2.800781h-12.308594c-1.546874 0-2.800781-1.253906-2.800781-2.800781zm0 0"/><path d="m255.472656 298.125v-12.3125c0-1.542969 1.253906-2.796875 2.800782-2.796875h12.308593c1.546875 0 2.800781 1.253906 2.800781 2.796875v12.3125c0 1.546875-1.253906 2.800781-2.800781 2.800781h-12.308593c-1.546876 0-2.800782-1.253906-2.800782-2.800781zm0 0"/><path d="m280.566406 298.125v-11.109375c0-1.546875 1.253906-2.800781 2.800782-2.800781h11.105468c1.546875 0 2.800782 1.253906 2.800782 2.800781v11.109375c0 1.546875-1.253907 2.800781-2.800782 2.800781h-11.105468c-1.550782 0-2.800782-1.253906-2.800782-2.800781zm0 0"/><path d="m304.226562 274.234375v-12.308594c0-1.546875 1.253907-2.800781 2.800782-2.800781h12.308594c1.546874 0 2.800781 1.253906 2.800781 2.800781v12.308594c0 1.546875-1.253907 2.800781-2.800781 2.800781h-12.308594c-1.546875 0-2.800782-1.253906-2.800782-2.800781zm0 0"/><path d="m304.226562 298.125v-12.3125c0-1.542969 1.253907-2.796875 2.800782-2.796875h12.308594c1.546874 0 2.800781 1.253906 2.800781 2.796875v12.3125c0 1.546875-1.253907 2.800781-2.800781 2.800781h-12.308594c-1.546875 0-2.800782-1.253906-2.800782-2.800781zm0 0"/><path d="m255.472656 322.984375v-12.308594c0-1.546875 1.253906-2.800781 2.800782-2.800781h12.308593c1.546875 0 2.800781 1.253906 2.800781 2.800781v12.308594c0 1.546875-1.253906 2.800781-2.800781 2.800781h-12.308593c-1.546876 0-2.800782-1.253906-2.800782-2.800781zm0 0"/><path d="m279.363281 322.984375v-12.308594c0-1.546875 1.253907-2.800781 2.800781-2.800781h12.308594c1.546875 0 2.800782 1.253906 2.800782 2.800781v12.308594c0 1.546875-1.253907 2.800781-2.800782 2.800781h-12.308594c-1.546874 0-2.800781-1.253906-2.800781-2.800781zm0 0"/></g><path d="m255.472656 346.878906v-12.3125c0-1.542968 1.253906-2.796875 2.800782-2.796875h12.308593c1.546875 0 2.800781 1.253907 2.800781 2.796875v12.3125c0 1.546875-1.253906 2.800782-2.800781 2.800782h-12.308593c-1.546876 0-2.800782-1.253907-2.800782-2.800782zm0 0" fill="#8c4c17"/><path d="m304.226562 322.984375v-12.308594c0-1.546875 1.253907-2.800781 2.800782-2.800781h12.308594c1.546874 0 2.800781 1.253906 2.800781 2.800781v12.308594c0 1.546875-1.253907 2.800781-2.800781 2.800781h-12.308594c-1.546875 0-2.800782-1.253906-2.800782-2.800781zm0 0" fill="#8c4c17"/><path d="m255.472656 346.878906v-12.3125c0-1.542968 1.253906-2.796875 2.800782-2.796875h12.308593c1.546875 0 2.800781 1.253907 2.800781 2.796875v12.3125c0 1.546875-1.253906 2.800782-2.800781 2.800782h-12.308593c-1.546876 0-2.800782-1.253907-2.800782-2.800782zm0 0" fill="#f9cfcf"/><path d="m304.226562 322.984375v-12.308594c0-1.546875 1.253907-2.800781 2.800782-2.800781h12.308594c1.546874 0 2.800781 1.253906 2.800781 2.800781v12.308594c0 1.546875-1.253907 2.800781-2.800781 2.800781h-12.308594c-1.546875 0-2.800782-1.253906-2.800782-2.800781zm0 0" fill="#f9cfcf"/><path d="m243.472656 347.316406 87.261719-47.207031c1.703125-.921875 3.773437.3125 3.773437 2.25v104.617187c0 2.648438-2.148437 4.792969-4.792968 4.792969h-82.789063c-2.648437 0-4.792969-2.144531-4.792969-4.792969v-57.410156c0-.9375.511719-1.800781 1.339844-2.25zm0 0" fill="#6bdddd"/><path d="m313.746094 386.253906h-45.726563c-2.902343 0-5.25-2.351562-5.25-5.25v-13.304687c0-2.902344 2.347657-5.25 5.25-5.25h45.726563c2.902344 0 5.25 2.347656 5.25 5.25v13.304687c0 2.898438-2.347656 5.25-5.25 5.25zm0 0" fill="#4671c6"/><path d="m334.609375 302.359375v8.804687l-92.476563 49.972657v-11.570313c0-.9375.511719-1.800781 1.339844-2.246094l87.367188-47.210937c1.703125-.921875 3.769531.3125 3.769531 2.25zm0 0" fill="#4671c6"/><path d="m332.652344 417.554688h-269.582032c-10.640624 0-19.300781-8.660157-19.300781-19.300782v-330.785156c0-10.644531 8.660157-19.304688 19.300781-19.304688h269.582032c10.644531 0 19.304687 8.660157 19.304687 19.304688v330.785156c0 10.640625-8.660156 19.300782-19.304687 19.300782zm-269.582032-361.390626c-6.230468 0-11.300781 5.070313-11.300781 11.304688v330.785156c0 6.230469 5.070313 11.300782 11.300781 11.300782h269.582032c6.234375 0 11.304687-5.070313 11.304687-11.300782v-330.785156c0-6.234375-5.070312-11.304688-11.304687-11.304688zm0 0" fill="#3762cc"/></svg>