<svg height="512pt" viewBox="0 -25 512.00125 512" width="512pt" xmlns="http://www.w3.org/2000/svg"><path d="m247.539062 454.878906c-11.914062 0-22.359374-8.707031-24.1875-20.84375-5.976562-39.644531-28.023437-75.46875-28.242187-75.824218-7.140625-11.488282-3.617187-26.589844 7.875-33.730469 11.488281-7.140625 26.585937-3.613281 33.726563 7.875 1.125 1.808593 27.613281 44.863281 35.078124 94.378906 2.015626 13.375-7.195312 25.851563-20.570312 27.867187-1.234375.1875-2.464844.277344-3.679688.277344zm0 0" fill="#3a5093"/><path d="m271.789062 426.734375c-.730468-4.84375-1.648437-9.617187-2.699218-14.300781l-47.167969 13.613281c.539063 2.636719 1.023437 5.300781 1.429687 7.988281 1.828126 12.136719 12.273438 20.84375 24.1875 20.84375 1.214844 0 2.441407-.089844 3.679688-.277344 13.375-2.015624 22.585938-14.492187 20.570312-27.867187zm0 0" fill="#404656"/><path d="m158.492188 454.882812c-3.421876 0-6.894532-.722656-10.207032-2.242187-12.292968-5.644531-17.679687-20.1875-12.035156-32.480469 12.089844-26.3125 14.269531-62.703125 14.089844-74.503906-.207032-13.527344 10.589844-24.65625 24.117187-24.863281 13.488281-.179688 24.65625 10.589843 24.859375 24.117187.035156 2.183594.59375 54.011719-18.554687 95.695313-4.125 8.980469-12.996094 14.277343-22.269531 14.277343zm0 0" fill="#5f75a1"/><path d="m139.847656 411.253906c-1.089844 3.054688-2.28125 6.042969-3.597656 8.90625-5.644531 12.292969-.257812 26.832032 12.035156 32.480469 3.3125 1.519531 6.785156 2.242187 10.207032 2.242187 9.273437 0 18.148437-5.296874 22.273437-14.273437 1.644531-3.585937 3.144531-7.246094 4.511719-10.945313zm0 0" fill="#404656"/><path d="m282.9375 288.800781c0-56.511719-39.863281-102.320312-89.035156-102.320312s-89.035156 45.808593-89.035156 102.320312c0 56.507813 39.863281 89.964844 89.035156 89.964844s89.035156-33.457031 89.035156-89.964844zm0 0" fill="#a0d9e7"/><path d="m114.902344 333.28125c14.84375 29.128906 44.636718 45.484375 79 45.484375 34.363281 0 64.160156-16.355469 79-45.484375zm0 0" fill="#5f75a1"/><path d="m366.433594 128.574219c-1.566406-17.917969-19.941406-30.949219-41.035156-29.101563s-36.921876 17.871094-35.351563 35.789063c1.566406 17.917969 19.9375 30.949219 41.03125 29.101562 21.09375-1.847656 36.925781-17.867187 35.355469-35.789062zm0 0" fill="#f0cdb9"/><path d="m7.597656 159.984375c1.570313 17.921875 19.941406 30.949219 41.035156 29.105469 21.09375-1.847656 36.921876-17.871094 35.355469-35.789063-1.570312-17.921875-19.941406-30.949219-41.035156-29.101562-21.09375 1.84375-36.921875 17.867187-35.355469 35.785156zm0 0" fill="#f8dccc"/><path d="m332.769531 131.535156c-6.410156-73.261718-76.859375-126.941406-157.359375-119.898437-80.496094 7.042969-140.558594 72.140625-134.148437 145.402343 6.410156 73.261719 75.394531 110.1875 155.894531 103.144532 80.496094-7.042969 142.023438-55.386719 135.613281-128.648438zm0 0" fill="#f8dccc"/><path d="m104.414062 35.546875c-41.753906 26.722656-67.460937 72.265625-63.152343 121.492187 6.410156 73.261719 75.394531 110.1875 155.894531 103.144532 7.355469-.640625 14.554688-1.632813 21.554688-2.957032-150.5625-23.597656-149.773438-155.132812-114.296876-221.679687zm0 0" fill="#f0cdb9"/><path d="m133.328125 178.914062c-1.265625-14.476562-17.03125-24.921874-35.210937-23.332031-18.179688 1.59375-31.890626 14.617188-30.621094 29.097657 1.265625 14.476562 17.03125 24.921874 35.210937 23.332031 18.179688-1.59375 31.890625-14.617188 30.621094-29.097657zm0 0" fill="#f8b8bd"/><path d="m245.902344 169.082031c1.265625 14.476563 17.03125 24.921875 35.210937 23.332031 18.179688-1.589843 31.890625-14.617187 30.621094-29.09375-1.265625-14.480468-17.03125-24.925781-35.210937-23.335937-18.179688 1.59375-31.890626 14.621094-30.621094 29.097656zm0 0" fill="#f8b8bd"/><path d="m329.269531 111.28125c-16.34375-62.628906-80.984375-106.023438-153.859375-99.644531-72.875 6.375-128.996094 60.332031-134.21875 124.847656 23.03125-5.960937 51.917969-28.121094 66.84375-52.074219 1.71875 9.609375 5.203125 16.359375 8.625 21.25.949219 1.355469 2.65625 1.972656 4.226563 1.464844 17.304687-5.59375 53-32.269531 58.574219-49.175781 8.425781 15.679687 48.214843 35.753906 66.226562 38.257812 1.636719.226563 3.210938-.675781 3.910156-2.175781 2.519532-5.410156 4.777344-12.664062 4.800782-22.425781 18.855468 20.996093 51.15625 37.800781 74.871093 39.675781zm0 0" fill="#404656"/><path d="m104.40625 35.558594c-35.859375 22.953125-59.886719 59.792968-63.214844 100.925781 13.886719-3.59375 29.898438-13.085937 43.699219-25.300781.832031-28.023438 8.5-54.957032 19.515625-75.625zm0 0" fill="#353947"/><path d="m349.695312 178.429688h32.65625v-82.925782c0-15.273437-5.949218-29.632812-16.75-40.433594l-45.289062-45.289062c-3.039062-3.042969-7.96875-3.042969-11.011719 0l-12.078125 12.078125c-3.039062 3.039063-3.039062 7.96875 0 11.011719l45.289063 45.289062c4.632812 4.632813 7.183593 10.792969 7.183593 17.34375zm0 0" fill="#5f75a1"/><path d="m489.9375 198.976562h-247.828125c-8.042969 0-14.5625-6.519531-14.5625-14.5625v-11.96875c0-8.042968 6.519531-14.566406 14.5625-14.566406h247.828125c8.042969 0 14.5625 6.519532 14.5625 14.566406v11.96875c0 8.042969-6.519531 14.5625-14.5625 14.5625zm0 0" fill="#eeeeed"/><path d="m348.746094 157.882812h-106.636719c-8.042969 0-14.5625 6.519532-14.5625 14.5625v11.96875c0 8.042969 6.519531 14.5625 14.5625 14.5625h111.378906c-13.152343-8.238281-15.640625-29.671874-4.742187-41.09375zm0 0" fill="#dfdfdd"/><path d="m477.140625 198.976562h-222.234375l25.277344 201.761719c1.28125 10.222657 9.972656 17.890625 20.273437 17.890625h131.132813c10.300781 0 18.992187-7.667968 20.269531-17.890625zm0 0" fill="#e8899e"/><path d="m336.523438 198.976562h-81.617188l25.277344 201.761719c1.28125 10.222657 9.972656 17.890625 20.273437 17.890625h84.71875c-39.246093-46.359375-51.707031-167.746094-48.652343-219.652344zm0 0" fill="#df5f7d"/><path d="m451.859375 400.738281 5.703125-45.519531c-33.863281-7.117188-44.039062-31.644531-91.539062-31.644531s-57.675782 24.527343-91.542969 31.644531l5.703125 45.519531c1.28125 10.222657 9.972656 17.890625 20.273437 17.890625h131.132813c10.300781 0 18.992187-7.667968 20.269531-17.890625zm0 0" fill="#f5ea72"/><path d="m347.71875 324.980469c-32.582031 5.289062-44.230469 24.144531-73.238281 30.238281l5.703125 45.519531c1.28125 10.222657 9.972656 17.890625 20.273437 17.890625h84.71875c-17.453125-20.613281-29.609375-56.058594-37.457031-93.648437zm0 0" fill="#eab65f"/><path d="m198.652344 321.625c-10.074219 0-20.34375-.667969-31.003906-1.984375-13.425782-1.652344-22.96875-13.875-21.316407-27.300781 1.65625-13.425782 13.875-22.96875 27.304688-21.3125 33.882812 4.171875 61.773437.363281 96.257812-13.144532 12.59375-4.933593 26.804688 1.277344 31.738281 13.871094 4.933594 12.59375-1.277343 26.804688-13.871093 31.738282-31.449219 12.320312-59.441407 18.132812-89.109375 18.132812zm0 0" fill="#7ccbdd"/><path d="m269.894531 257.882812c-6.316406 2.476563-12.410156 4.617188-18.363281 6.453126l12.898438 47.277343c7.609374-2.296875 15.359374-5 23.332031-8.121093 12.59375-4.933594 18.804687-19.144532 13.871093-31.738282-4.9375-12.59375-19.144531-18.804687-31.738281-13.871094zm0 0" fill="#f8dccc"/><path d="m249.882812 142.371094c.34375 3.902344 3.617188 6.847656 7.464844 6.847656.21875 0 .4375-.011719.660156-.03125 4.128907-.359375 7.179688-3.996094 6.820313-8.125l-1.019531-11.625c-.359375-4.125-4-7.167969-8.125-6.816406-4.125.359375-7.179688 4-6.816406 8.125zm240.054688 8.011718h-100.085938v-54.878906c0-17.277344-6.730468-33.519531-18.945312-45.738281l-45.289062-45.289063c-2.886719-2.886718-6.726563-4.476562-10.808594-4.476562-4.085938 0-7.925782 1.589844-10.8125 4.480469l-12.078125 12.074219c-5.960938 5.960937-5.960938 15.660156 0 21.621093l45.289062 45.285157c2.714844 2.714843 4.382813 6.1875 4.84375 9.9375-3.695312-.949219-7.53125-1.480469-11.449219-1.570313-9.113281-21.730469-24.136718-41.050781-44.183593-56.320313-31.210938-23.78125-70.867188-34.914062-111.660157-31.34375-25.226562 2.207032-49.738281 10.121094-70.878906 22.886719-3.546875 2.140625-4.683594 6.75-2.542968 10.296875 2.140624 3.546875 6.75 4.6875 10.296874 2.542969 19.191407-11.585937 41.472657-18.773437 64.433594-20.78125 37.0625-3.246094 73.03125 6.816406 101.261719 28.328125 19.113281 14.5625 33.109375 33.199219 41.003906 54.140625.023438.082031.054688.15625.082031.238281-20.277343-5.199218-44.078124-19.234375-58.433593-35.222656-2.074219-2.308594-5.359375-3.101562-8.253907-1.992188-2.902343 1.105469-4.820312 3.882813-4.828124 6.984376-.015626 6.0625-.996094 11.550781-2.996094 16.691406-18.191406-3.898438-51.523438-22.132813-57.832032-33.878906-1.417968-2.640626-4.269531-4.175782-7.261718-3.921876-2.984375.261719-5.53125 2.277344-6.46875 5.125-4.171875 12.65625-33.832032 36.40625-51.074219 43.402344-2.859375-4.714844-4.777344-9.949218-5.847656-15.914062-.546875-3.054688-2.917969-5.457032-5.964844-6.042969s-6.140625.765625-7.78125 3.398437c-11.347656 18.210938-32.304687 36.140626-51.355469 44.796876 4.574219-24.195313 16.855469-47.078126 35.65625-65.507813 2.957032-2.898437 3.003906-7.648437.105469-10.605469-2.902344-2.960937-7.648437-3.003906-10.605469-.105468-19.757812 19.363281-33.085937 43.179687-38.882812 68.539062-22.246094 4.449219-38.230469 22.800781-36.457032 43.078125 1.789063 20.425781 20.914063 35.761719 43.78125 36.105469 9.042969 19.617187 23.714844 35.996094 43.546876 48.347656 4.777343 2.976562 9.824218 5.671875 15.097656 8.09375-3.441406 11.425781-5.191406 23.371094-5.191406 35.613281 0 29.050781 9.816406 53.808594 28.390624 71.589844 4.644532 4.449219 9.78125 8.34375 15.300782 11.695313-1.699219 13.363281-5.042969 30.625-11.625 44.945312-3.566406 7.765625-3.894532 16.457031-.925782 24.46875s8.878907 14.390625 16.644532 17.957031c4.226562 1.945313 8.714844 2.925781 13.339844 2.925781 12.464843 0 23.882812-7.316406 29.085937-18.640624 6.945313-15.117188 12.101563-32.894532 15.386719-52.945313 4.3125 10.335937 8.789062 23.0625 11.570312 36.546875.007813.039062.015625.074219.023438.113281.523437 2.542969.988281 5.113281 1.375 7.699219 2.339844 15.519531 15.925781 27.226562 31.605468 27.226562 1.597657 0 3.210938-.121093 4.796876-.359374 8.449218-1.273438 15.898437-5.761719 20.972656-12.640626 5.078125-6.875 7.167968-15.3125 5.894531-23.765624-.628906-4.191407-1.410156-8.324219-2.277344-12.398438 5 7.808594 13.746094 12.914062 23.535157 12.914062h131.128906c6.585937 0 12.984375-2.339843 18.019531-6.589843 3.164063-2.671875 3.5625-7.402344.890625-10.570313-2.671875-3.164062-7.402344-3.5625-10.566406-.890625-2.332032 1.964844-5.292969 3.050781-8.34375 3.050781h-131.132813c-6.503906 0-12.023437-4.867187-12.832031-11.324218l-4.878906-38.945313c11.425781-3.363281 20.285156-8.496093 28.886718-13.492187 14.421876-8.378906 28.046876-16.292969 54.390626-16.292969s39.96875 7.914063 54.390624 16.292969c8.601563 4.996094 17.460938 10.128906 28.886719 13.492187l-2.527343 20.171875c-.515626 4.109375 2.398437 7.859375 6.507812 8.375.316406.039063.632812.058594.941406.058594 3.726563 0 6.957032-2.773438 7.433594-6.566406l22.105469-176.421875h6.175781c12.164062 0 22.0625-9.898438 22.0625-22.066407v-11.964843c0-12.171875-9.898438-22.066407-22.0625-22.066407zm-474.859375 8.945313c-.960937-10.96875 7.007813-21.089844 18.863281-25.492187-.046875.472656-.101562.945312-.140625 1.417968-.074219.421875-.101562.855469-.097656 1.289063-.546875 7.011719-.53125 14.078125.085937 21.148437.71875 8.179688 2.167969 16.019532 4.328126 23.480469-12.460938-2.257813-22.078126-10.84375-23.039063-21.84375zm287.449219-131.757813c-.113282-.113281-.113282-.296874-.003906-.410156l12.078124-12.078125c.027344-.023437.085938-.082031.203126-.082031.121093 0 .175781.058594.203124.082031l45.289063 45.289063c9.386719 9.386718 14.554687 21.863281 14.554687 35.132812v54.878906h-17.65625v-45.886718c0-.011719 0-.023438 0-.039063v-8.953125c0-8.554687-3.332031-16.597656-9.382812-22.648437zm39.667968 81.617188v41.195312h-1.78125c.453126-6.378906.402344-12.90625-.171874-19.5-.703126-8.007812-2.128907-15.84375-4.230469-23.457031 2.132812.394531 4.199219.988281 6.183593 1.761719zm-246.804687 123.171875c-27.683594-17.242187-43.816406-43.515625-46.660156-75.972656-.414063-4.761719-.515625-9.519531-.332031-14.253907 19.585937-6.722656 41.59375-22.828124 56.910156-41.253906 1.453125 3.179688 3.1875 6.195313 5.207031 9.082032 2.867187 4.097656 7.960937 5.820312 12.679687 4.300781 9.472657-3.0625 23.296876-11.355469 36.082032-21.640625 5.960937-4.796875 15.070312-12.796875 21.347656-21.390625 7.671875 7.375 18.035156 13.667969 24.738281 17.355469 14.375 7.910156 29.429688 13.675781 39.292969 15.046874 4.902344.683594 9.625-1.902343 11.738281-6.433593 1.488281-3.195313 2.671875-6.46875 3.550781-9.847657 18.289063 15.492188 42.773438 27.535157 63.234376 30.746094.984374 4.621094 1.703124 9.320313 2.121093 14.089844.539063 6.175781.5625 12.269531.078125 18.191406h-83.269531c-12.164063 0-22.0625 9.898438-22.0625 22.0625v11.96875c0 12.167969 9.898437 22.066406 22.0625 22.066406h6.175781l4.15625 33.148438c-16.941406 6.914062-35.726562 11.316406-55.9375 13.085938-38.695312 3.390624-74.605468-3.839844-101.113281-20.351563zm103.257813 81.765625c-9.714844 0-19.558594-.628906-30.085938-1.925781-4.503906-.554688-8.523438-2.832031-11.316406-6.410157-2.792969-3.578124-4.023438-8.027343-3.46875-12.53125.554687-4.507812 2.828125-8.527343 6.40625-11.320312 3.015625-2.351562 6.652344-3.597656 10.417968-3.597656.703126 0 1.410157.042968 2.117188.128906 26.207031 3.226562 48.941406 1.867188 73.585938-4.804688l8.933593 32.75c-19.300781 5.210938-37.769531 7.710938-56.589843 7.710938zm63.859374 5.84375.726563 5.8125h-25.984375c8.324219-1.449219 16.714844-3.382812 25.257812-5.8125zm-20.960937-60.59375c4.363281-1.320312 8.636719-2.78125 12.816406-4.382812l.066407.527343c-4.375 1.460938-8.65625 2.738281-12.882813 3.855469zm-121.917969 66.40625c-4.78125-10.929688-7.257812-23.371094-7.257812-36.984375 0-10.320313 1.425781-20.382813 4.199218-30.023437 12.0625 4.152343 25.0625 7 38.703126 8.5-1.5.824218-2.945313 1.769531-4.320313 2.839843-6.734375 5.261719-11.019531 12.828125-12.0625 21.308594-1.046875 8.480469 1.273437 16.863281 6.535156 23.597656 3.996094 5.121094 9.332031 8.820313 15.386719 10.761719zm54.320313 111.695312c-2.765625 6.015626-8.832031 9.90625-15.457031 9.90625-2.445313 0-4.828126-.523437-7.078126-1.558593-4.121093-1.894531-7.261718-5.28125-8.839843-9.539063-1.578125-4.253906-1.402344-8.871094.492187-12.992187.339844-.742188.660156-1.496094.984375-2.246094l31.507813 12.773437c-.527344 1.238282-1.0625 2.464844-1.609375 3.65625zm6.792969-17.742187-31.589844-12.804687c2.875-9.546876 4.796875-19.234376 6.078125-27.832032 10.300781 4.070313 21.527343 6.472656 33.292969 7.03125-1.882813 12.042969-4.511719 23.355469-7.78125 33.605469zm13.160156-48.46875c-22.632813 0-43.148438-7.710937-57.769532-21.710937-2.84375-2.722657-5.433593-5.652344-7.785156-8.773438h131.070313c-14.582031 19.265625-38.316407 30.484375-65.515625 30.484375zm22.460937 12.6875c11.46875-2.417969 22.101563-6.699219 31.523438-12.621094 4.222656 10.085938 8.722656 22.425781 12.214843 35.886719l-32.640624 9.421875c-3.0625-12.136719-7.171876-23.386719-11.097657-32.6875zm44.878907 56.519531c-2.695313 3.652344-6.652344 6.035156-11.140626 6.710938-.851562.128906-1.710937.195312-2.5625.195312-8.320312 0-15.53125-6.21875-16.773437-14.460937-.078125-.515625-.167969-1.03125-.253906-1.542969l32.851562-9.484375c.363281 1.976563.707031 3.960937 1.007813 5.960937.675781 4.488282-.433594 8.972657-3.128906 12.621094zm-1.023438-78.460937c2.355469-2.125 4.59375-4.378907 6.710938-6.753907l4.722656 37.691407c-3.574219-11.703125-7.671875-22.261719-11.433594-30.9375zm9.386719-59.925781-8.957031-32.824219c1.457031-.496094 2.917968-1.011719 4.394531-1.542969 2.5-.902344 5.023437-1.847656 7.585937-2.855469 8.722656-3.414062 18.601563.902344 22.019532 9.625 3.417968 8.722657-.898438 18.601563-9.621094 22.019531-5.230469 2.046876-10.363282 3.894532-15.421875 5.578126zm181.589843 43.652343c-8.644531-2.863281-15.789062-7.007812-23.246093-11.339843-14.785157-8.589844-31.539063-18.324219-61.925781-18.324219-30.386719 0-47.140626 9.734375-61.925782 18.324219-7.457031 4.332031-14.605468 8.476562-23.246094 11.339843l-1.164062-9.277343c.457031-.964844.714844-2.042969.714844-3.179688 0-1.8125-.640625-3.472656-1.710938-4.769531l-1.640625-13.109375c4.425781-1.515625 8.898438-3.148438 13.445313-4.929688 7.957031-3.117187 14.222656-9.144531 17.644531-16.976562 3.421875-7.828125 3.59375-16.523438.476563-24.480469-6.210938-15.847656-23.746094-23.964844-39.726563-18.734375l-.855469-6.828125c0-.027344-.003906-.058594-.007812-.085937l-4.625-36.890626h205.238281zm45.804688-161.324219c0 3.894532-3.167969 7.0625-7.0625 7.0625h-247.828125c-3.894531 0-7.0625-3.167968-7.0625-7.0625v-11.96875c0-3.894531 3.167969-7.0625 7.0625-7.0625h89.960937.011719.023438 157.828125c3.898437 0 7.066406 3.167969 7.066406 7.0625zm-373.246094-42.722656c-.363281-4.125-4.007812-7.167968-8.125-6.816406-4.128906.359375-7.179687 4-6.820312 8.125l1.019531 11.625c.339844 3.902344 3.613281 6.847656 7.460937 6.847656.21875 0 .441407-.011718.664063-.03125 4.125-.359375 7.179687-3.996094 6.816406-8.125zm65.007813 22.550782c9.234375-.808594 17.667969-5.578126 23.136719-13.082032 2.4375-3.347656 1.703124-8.039062-1.648438-10.476562-3.347656-2.441406-8.039062-1.703125-10.476562 1.644531-2.914063 4-7.402344 6.539063-12.316407 6.972656-4.917969.429688-9.78125-1.292969-13.34375-4.726562-2.984375-2.875-7.730469-2.789063-10.605469.195312-2.871093 2.984375-2.785156 7.730469.199219 10.605469 6.011719 5.792969 14 8.988281 22.261719 8.988281.929688 0 1.859375-.039062 2.792969-.121093zm0 0"/></svg>