<svg id="Layer_5" enable-background="new 0 0 64 64" height="512" viewBox="0 0 64 64" width="512" xmlns="http://www.w3.org/2000/svg"><path d="m57 55h-16c-1.103 0-2-.897-2-2v-22c0-1.103.897-2 2-2h16c1.103 0 2 .897 2 2v22c0 1.103-.897 2-2 2z" fill="#f0bc5e"/><path d="m59 21.101v-20.101h-58v54h34v3c0 2.757 2.243 5 5 5h18c2.757 0 5-2.243 5-5v-32c0-2.414-1.721-4.434-4-4.899zm-2-6.101h-12v-12h12zm-42-12v12h-12v-12zm-12 38h12v12h-12zm32-15v27h-18v-14h-14v-22h14v-14h26v14h14v4h-17c-2.757 0-5 2.243-5 5zm26 32c0 1.654-1.346 3-3 3h-18c-1.654 0-3-1.346-3-3v-32c0-1.654 1.346-3 3-3h18c1.654 0 3 1.346 3 3z"/><path d="m45 57h8v2h-8z"/><path d="m48 25h6v2h-6z"/><path d="m44 25h2v2h-2z"/><path d="m50 39c.551 0 1 .449 1 1h2c0-1.654-1.346-3-3-3v-2h-2v2h-3v3c0 1.654 1.346 3 3 3h2c.551 0 1 .449 1 1v1h-3c-.551 0-1-.449-1-1h-2c0 1.654 1.346 3 3 3v2h2v-2h3v-3c0-1.654-1.346-3-3-3h-2c-.551 0-1-.449-1-1v-1z"/><path d="m55 13v-8h-8v8zm-6-6h4v4h-4z"/><path d="m13 5h-8v8h8zm-2 6h-4v-4h4z"/><path d="m5 43v8h8v-8zm6 6h-4v-4h4z"/><path d="m9 33h2v-6c0-1.103-.897-2-2-2h-4v2h4z"/><path d="m5 29h2v2h-2z"/><path d="m19 23h-2v8h-4v2h4c1.103 0 2-.897 2-2z"/><path d="m15 21h4v-2h-4c-1.103 0-2 .897-2 2v8h2z"/><path d="m7 21h4v-2h-4c-1.103 0-2 .897-2 2v2h2z"/><path d="m19 5h4v2h-4z"/><path d="m21 11h2v-2h-2c-1.103 0-2 .897-2 2v6h2z"/><path d="m23 15h2c1.103 0 2-.897 2-2v-6h4v-2h-4c-1.103 0-2 .897-2 2v6h-2z"/><path d="m21 27h4c1.103 0 2-.897 2-2v-6c0-1.103-.897-2-2-2h-2v2h2v6h-4z"/><path d="m21 21h2v2h-2z"/><path d="m31 29h-10v2h10v2h2v-2c0-1.103-.897-2-2-2z"/><path d="m31 20v5h-2v2h2c1.103 0 2-.897 2-2v-5h4v-2h-4c-1.103 0-2 .897-2 2z"/><path d="m41 19v-8c0-1.103-.897-2-2-2h-2v2h2v8z"/><path d="m31 9h-2v5c0 1.103.897 2 2 2h6v-2h-6z"/><path d="m35 7h6v-2h-6c-1.103 0-2 .897-2 2v5h2z"/><path d="m27 49h-8v2h8c1.103 0 2-.897 2-2v-10h-2z"/><path d="m19 37v8c0 1.103.897 2 2 2h4v-2h-4v-8h2v-2h-2c-1.103 0-2 .897-2 2z"/><path d="m31 49h2v2h-2z"/><path d="m31 35h-4v-2h-2v2c0 1.103.897 2 2 2h4v10h2v-10c0-1.103-.897-2-2-2z"/><path d="m7 33h-2v2c0 1.103.897 2 2 2h10v-2h-10z"/><path d="m23 39h2v4h-2z"/></svg>